<?xml version="1.0" encoding="UTF-8"?>
<svg id="Layer_1" data-name="Layer 1" xmlns="http://www.w3.org/2000/svg" viewBox="0 0 768 768">
  <defs>
    <style>
      .cls-1 {
        fill: #fdbd18;
        stroke: #fdbd18;
      }

      .cls-1, .cls-2 {
        stroke-miterlimit: 10;
        stroke-width: .5px;
      }

      .cls-2 {
        stroke: #231f20;
      }

      .cls-2, .cls-3 {
        fill: #231f20;
      }

      .cls-3, .cls-4 {
        stroke-width: 0px;
      }

      .cls-4 {
        fill: #f9f9f9;
      }
    </style>
  </defs>
  <g>
    <rect class="cls-4" x="24.63" y="24.63" width="718.74" height="718.74"/>
    <path class="cls-3" d="m768,768H0V0h768v767.99Zm-718.74-49.26h669.49V49.26H49.26v669.48Z"/>
  </g>
  <g>
    <path class="cls-2" d="m160.76,426.63c9.51,0,17.25-1.05,23.18-3.14,11.26-4.02,16.89-11.48,16.89-22.39,0-6.37-2.79-11.3-8.38-14.8-5.59-3.41-14.36-6.42-26.32-9.03l-20.43-4.58c-20.08-4.54-33.96-9.47-41.64-14.79-13.01-8.91-19.51-22.83-19.51-41.78,0-17.28,6.28-31.64,18.86-43.08,12.57-11.44,31.03-17.16,55.39-17.16,20.35,0,37.69,5.39,52.06,16.17,14.36,10.78,21.89,26.44,22.59,46.95h-38.76c-.7-11.61-5.77-19.86-15.19-24.75-6.29-3.23-14.1-4.84-23.44-4.84-10.39,0-18.69,2.1-24.89,6.28-6.2,4.19-9.29,10.04-9.29,17.55,0,6.9,3.05,12.04,9.17,15.45,3.93,2.27,12.31,4.93,25.14,7.99l33.27,7.99c14.58,3.49,25.58,8.16,33,14.01,11.53,9.08,17.29,22.22,17.29,39.42s-6.75,32.28-20.23,43.93c-13.49,11.66-32.55,17.49-57.16,17.49s-44.92-5.74-59.32-17.22-21.61-27.26-21.61-47.34h38.5c1.22,8.82,3.62,15.41,7.2,19.77,6.55,7.95,17.76,11.92,33.65,11.92Z"/>
    <path class="cls-2" d="m409.84,261.49v34.18h-57.75v158.85h-40.59v-158.85h-58.01v-34.18h156.36Z"/>
  </g>
  <g>
    <path class="cls-1" d="m196.9,648.3h-71.1l-13.36,39.68h-42.17l68.88-193.02h45.57l68.36,193.02h-43.74l-12.44-39.68Zm-11.26-33.27l-24.1-75.95-24.88,75.95h48.98Z"/>
    <path class="cls-1" d="m359.55,612.29h-41.65v75.69h-39.42v-193.02h94.68c13.53.26,23.94,1.92,31.23,4.98,7.29,3.06,13.47,7.55,18.53,13.49,4.19,4.89,7.51,10.3,9.95,16.24,2.44,5.94,3.66,12.7,3.66,20.3,0,9.17-2.31,18.18-6.94,27.04-4.63,8.87-12.27,15.13-22.92,18.8,8.9,3.58,15.21,8.66,18.92,15.25,3.71,6.6,5.57,16.66,5.57,30.18v12.97c0,8.82.34,14.79,1.05,17.94,1.05,4.98,3.49,8.64,7.33,11v4.84h-44.4c-1.22-4.28-2.09-7.72-2.62-10.34-1.05-5.41-1.62-10.96-1.7-16.63l-.26-17.94c-.17-12.31-2.42-20.51-6.74-24.62-4.32-4.1-12.42-6.15-24.29-6.15Zm24.48-35.1c8.03-3.66,12.05-10.91,12.05-21.74,0-11.7-3.89-19.55-11.65-23.57-4.37-2.27-10.91-3.41-19.64-3.41h-46.88v51.86h45.71c9.08,0,15.89-1.05,20.42-3.14Z"/>
    <path class="cls-1" d="m611.5,494.95v34.18h-57.75v158.85h-40.59v-158.85h-58.01v-34.18h156.36Z"/>
    <path class="cls-1" d="m601.68,648.95h39.68v39.02h-39.68v-39.02Z"/>
  </g>
</svg>