<?xml version="1.0" encoding="UTF-8"?>
<svg id="Layer_1" data-name="Layer 1" xmlns="http://www.w3.org/2000/svg" viewBox="0 0 768 768">
  <defs>
    <style>
      .cls-1 {
        fill: #231f20;
        stroke: #231f20;
        stroke-miterlimit: 10;
        stroke-width: .5px;
      }
    </style>
  </defs>
  <path class="cls-1" d="m200.11,558.78c24.18,0,43.72-2.65,58.79-7.95,28.48-10.1,42.89-29.14,42.89-56.8,0-16.23-7.12-28.65-21.2-37.59-14.24-8.61-36.43-16.23-66.73-22.85l-51.83-11.59c-50.84-11.43-86.11-24.01-105.65-37.42-32.95-22.52-49.51-57.79-49.51-105.98,0-43.88,15.9-80.15,47.86-109.29,31.96-29.14,78.66-43.55,140.42-43.55,51.5,0,95.55,13.74,131.98,41.07,36.43,27.32,55.47,67.06,57.29,119.06h-98.2c-1.82-29.48-14.57-50.34-38.58-62.76-15.9-8.11-35.77-12.25-59.45-12.25-26.33,0-47.36,5.3-63.09,15.9-15.73,10.6-23.68,25.5-23.68,44.54,0,17.55,7.78,30.47,23.18,39.25,9.94,5.8,31.13,12.59,63.75,20.2l84.29,20.2c36.93,8.94,64.91,20.7,83.62,35.44,29.14,23.02,43.88,56.3,43.88,100.02s-17.06,81.8-51.33,111.44c-34.11,29.64-82.46,44.38-144.89,44.38s-113.93-14.57-150.36-43.72C17.13,569.38-1.25,529.47-1.25,478.47h97.53c3.15,22.35,9.27,39.08,18.22,50.17,16.89,20.04,45.37,30.14,85.61,30.14h0Z"/>
  <path class="cls-1" d="m769.25,140.17v86.6h-146.38v402.72h-102.83V226.77h-147.05l-177.85-86.6h574.11Z"/>
</svg>